HIERARCHY
ROOT Hips
{
	OFFSET 0.000000 0.000000 0.000000
	CHANNELS 6 Xposition Yposition Zposition Zrotation Yrotation Xrotation 
	JOINT LHipJoint
	{
		OFFSET 0.000000 0.000000 0.000000
		CHANNELS 3 Zrotation Yrotation Xrotation
		JOINT LeftUpLeg
		{
			OFFSET 1.363060 -1.794630 0.839290
			CHANNELS 3 Zrotation Yrotation Xrotation
			JOINT LeftLeg
			{
				OFFSET 2.448110 -6.726130 0.000000
				CHANNELS 3 Zrotation Yrotation Xrotation
				JOINT LeftFoot
				{
					OFFSET 2.562200 -7.039590 0.000000
					CHANNELS 3 Zrotation Yrotation Xrotation
					JOINT LeftToeBase
					{
						OFFSET 0.157640 -0.433110 2.322550
						CHANNELS 3 Zrotation Yrotation Xrotation
						End Site
						{
							OFFSET 0.000000 0.000000 0.000000
						}
					}
				}
			}
		}
	}
	JOINT RHipJoint
	{
		OFFSET 0.000000 0.000000 0.000000
		CHANNELS 3 Zrotation Yrotation Xrotation
		JOINT RightUpLeg
		{
			OFFSET -1.305520 -1.794630 0.839290
			CHANNELS 3 Zrotation Yrotation Xrotation
			JOINT RightLeg
			{
				OFFSET -2.542530 -6.985550 0.000000
				CHANNELS 3 Zrotation Yrotation Xrotation
				JOINT RightFoot
				{
					OFFSET -2.568260 -7.056230 0.000000
					CHANNELS 3 Zrotation Yrotation Xrotation
					JOINT RightToeBase
					{
						OFFSET -0.164730 -0.452590 2.363150
						CHANNELS 3 Zrotation Yrotation Xrotation
						End Site
						{
							OFFSET 0.000000 0.000000 0.000000
						}
					}
				}
			}
		}
	}
	JOINT LowerBack
	{
		OFFSET 0.000000 0.000000 0.000000
		CHANNELS 3 Zrotation Yrotation Xrotation
		JOINT Spine
		{
			OFFSET 0.028270 2.035590 -0.193380
			CHANNELS 3 Zrotation Yrotation Xrotation
			JOINT Spine1
			{
				OFFSET 0.056720 2.048850 -0.042750
				CHANNELS 3 Zrotation Yrotation Xrotation
				JOINT Neck
				{
					OFFSET 0.000000 0.000000 0.000000
					CHANNELS 3 Zrotation Yrotation Xrotation
					JOINT Neck1
					{
						OFFSET -0.054170 1.746240 0.172020
						CHANNELS 3 Zrotation Yrotation Xrotation
						JOINT Head
						{
							OFFSET 0.104070 1.761360 -0.123970
							CHANNELS 3 Zrotation Yrotation Xrotation
							End Site
							{
								OFFSET 0.000000 0.000000 0.000000
							}
						}
					}
				}
				JOINT LeftShoulder
				{
					OFFSET 0.000000 0.000000 0.000000
					CHANNELS 3 Zrotation Yrotation Xrotation
					JOINT LeftArm
					{
						OFFSET 3.362410 1.200890 -0.311210
						CHANNELS 3 Zrotation Yrotation Xrotation
						JOINT LeftForeArm
						{
							OFFSET 4.983000 -0.000000 -0.000000
							CHANNELS 3 Zrotation Yrotation Xrotation
							JOINT LeftHand
							{
								OFFSET 3.483560 -0.000000 -0.000000
								CHANNELS 3 Zrotation Yrotation Xrotation
								JOINT LeftFingerBase
								{
									OFFSET 0.000000 0.000000 0.000000
									CHANNELS 3 Zrotation Yrotation Xrotation
									JOINT LeftHandIndex1
									{
										OFFSET 0.715260 -0.000000 -0.000000
										CHANNELS 3 Zrotation Yrotation Xrotation
										End Site
										{
											OFFSET 0.000000 0.000000 0.000000
										}
									}
								}
								JOINT LThumb
								{
									OFFSET 0.000000 0.000000 0.000000
									CHANNELS 3 Zrotation Yrotation Xrotation
									End Site
									{
										OFFSET 0.000000 0.000000 0.000000
									}
								}
							}
						}
					}
				}
				JOINT RightShoulder
				{
					OFFSET 0.000000 0.000000 0.000000
					CHANNELS 3 Zrotation Yrotation Xrotation
					JOINT RightArm
					{
						OFFSET -3.136600 1.374050 -0.404650
						CHANNELS 3 Zrotation Yrotation Xrotation
						JOINT RightForeArm
						{
							OFFSET -5.241900 -0.000000 -0.000000
							CHANNELS 3 Zrotation Yrotation Xrotation
							JOINT RightHand
							{
								OFFSET -3.444170 -0.000000 -0.000000
								CHANNELS 3 Zrotation Yrotation Xrotation
								JOINT RightFingerBase
								{
									OFFSET 0.000000 0.000000 0.000000
									CHANNELS 3 Zrotation Yrotation Xrotation
									JOINT RightHandIndex1
									{
										OFFSET -0.622530 -0.000000 -0.000000
										CHANNELS 3 Zrotation Yrotation Xrotation
										End Site
										{
											OFFSET 0.000000 0.000000 0.000000
										}
									}
								}
								JOINT RThumb
								{
									OFFSET 0.000000 0.000000 0.000000
									CHANNELS 3 Zrotation Yrotation Xrotation
									End Site
									{
										OFFSET 0.000000 0.000000 0.000000
									}
								}
							}
						}
					}
				}
			}
		}
	}
}
MOTION
Frames: 10
Frame Time: 0.008333
16.200964 19.146344 8.757518 -53.242454 -79.974469 43.731973 31.461636 8.710124 7.586907 -56.858672 -24.054762 -4.311271 13.233932 10.460082 59.763413 -3.972553 -23.880010 -53.222978 3.008200 10.708300 31.302400 -28.271331 -13.312477 1.224168 67.715128 2.150656 5.693452 -12.283911 -10.953728 48.134846 -0.155784 15.773434 -53.450965 -0.491400 -4.494600 12.472500 -6.287869 -0.811094 -7.269376 32.922223 -12.423610 51.639227 -11.936105 -2.084692 -21.210145 -12.972884 -3.917214 -41.226941 3.765130 -2.753348 51.084956 2.777600 -1.693500 13.707900 3.172222 2.786046 2.455395 -103.881962 6.385416 11.024832 36.122222 -50.340193 -6.614054 3.009859 8.136259 -1.291378 16.925149 23.748396 3.817700 -7.125000 0.000000 0.000000 -12.757100 45.558200 -0.178700 -12.175558 -5.532930 0.797097 99.679065 -1.237017 10.995724 -28.174602 37.891003 -3.318254 -3.967981 0.648592 -5.014490 -25.576132 13.744583 -5.153500 7.125000 0.000000 0.000000 3.903900 -15.914700 2.690100 
16.195717 19.102189 8.770837 -54.251797 -79.707620 44.986819 31.705075 9.630427 7.077596 -56.759217 -22.033869 -4.621415 13.648902 10.248908 58.913234 -2.699535 -21.483491 -54.508931 0.596600 4.944700 13.750900 -27.969922 -13.485469 1.828158 67.664520 2.959358 4.734431 -12.353496 -11.140929 49.351487 -0.198125 15.793385 -53.727305 -0.473200 -4.411700 12.237800 -6.319598 -0.933096 -7.374374 33.533051 -12.572177 51.151956 -12.056769 -2.119879 -20.960364 -13.029780 -3.923006 -41.188432 3.534088 -2.687895 51.675227 2.743600 -1.738900 13.887900 3.089802 2.722798 2.504244 -104.078090 6.355247 10.775260 36.068870 -50.345444 -6.626635 3.152438 8.077182 -1.127902 17.436313 23.629093 3.912100 -7.125000 0.000000 0.000000 -12.379700 45.537400 -0.166800 -12.245492 -5.521662 0.845165 99.660433 -1.156081 11.137840 -28.146124 37.817926 -3.297003 -3.938114 0.667974 -4.840386 -25.424059 13.764517 -5.124800 7.125000 0.000000 0.000000 3.989400 -15.917500 2.749100 
16.188290 19.113974 8.784559 -50.842781 -80.450888 41.698835 31.304148 9.486662 7.338256 -57.338382 -22.263372 -4.654651 13.615613 10.384370 58.817020 -2.469142 -21.141093 -54.567334 0.609300 4.996200 13.897700 -28.447926 -13.576193 1.765428 67.194487 2.997916 4.817047 -12.426447 -10.978737 49.247074 -0.000125 16.128277 -53.661041 -0.535500 -4.688800 13.023000 -6.711883 -0.824106 -7.755849 32.214703 -12.216044 51.992198 -11.473224 -1.890194 -21.253453 -13.052347 -4.003677 -41.539173 3.707873 -2.943979 52.540154 2.740600 -1.851200 14.120200 3.175097 2.772277 2.464731 -103.954083 6.319435 11.005863 36.167724 -50.385307 -6.645595 3.090424 8.096405 -1.160241 17.212494 23.727219 3.884700 -7.125000 0.000000 0.000000 -12.555300 45.598200 -0.188400 -12.034405 -5.561129 0.791214 99.601435 -1.120393 11.386036 -28.178493 37.885662 -3.315524 -3.952870 0.653099 -5.112414 -25.479963 13.802046 -5.150000 7.125000 0.000000 0.000000 3.960200 -15.875100 2.732500 
16.177716 19.147555 8.798524 -49.230853 -81.000932 40.140477 31.054491 8.552158 7.713386 -57.932406 -24.270125 -4.043321 13.174136 10.534170 59.082130 -3.617123 -23.375814 -53.365921 3.123700 10.892600 31.918500 -28.735980 -13.533793 1.458929 66.776032 2.662945 4.900076 -12.408621 -10.896963 49.267070 0.237516 16.663000 -53.558609 -0.567300 -4.823800 13.406800 -7.151872 -0.672872 -7.926805 31.740229 -11.979028 52.337253 -11.196066 -1.677583 -21.333848 -13.248832 -4.117315 -41.568702 3.803718 -3.171584 53.068199 2.734900 -1.977100 14.265200 3.196732 2.784961 2.453714 -103.877578 6.292930 11.150129 36.231796 -50.388459 -6.638326 2.963025 8.121338 -1.067059 16.671669 23.809677 3.783000 -7.125000 0.000000 0.000000 -12.936200 45.600700 -0.195100 -11.948451 -5.554096 0.788204 99.502359 -1.157623 11.728434 -28.304008 38.022329 -3.363304 -3.960635 0.620303 -5.512829 -25.506180 13.858650 -5.180800 7.125000 0.000000 0.000000 3.947600 -15.803500 2.729900 
16.166576 19.157161 8.812893 -51.257342 -80.643954 42.232672 31.248832 8.281044 7.762046 -57.782917 -25.006968 -3.881355 13.060002 10.527303 59.277119 -3.966495 -24.065713 -53.161698 3.964800 12.113400 36.134300 -28.560863 -13.528805 1.305785 66.813760 2.150360 4.825171 -12.298005 -10.916315 49.160106 0.375552 17.057709 -53.413419 -0.561800 -4.801000 13.341700 -6.975269 -0.752086 -7.909008 32.390226 -12.115948 51.893662 -11.539650 -1.760990 -21.076505 -13.425563 -4.212773 -41.367158 3.772151 -3.277712 53.446489 2.706700 -2.053600 14.393500 3.155108 2.703953 2.496357 -103.806885 6.270101 11.076562 36.252082 -50.380294 -6.645596 2.988060 8.148620 -1.056902 16.772027 23.923577 3.825800 -7.125000 0.000000 0.000000 -12.890100 45.695800 -0.225100 -12.011841 -5.556189 0.825143 99.656251 -1.083442 11.589084 -28.260815 37.974978 -3.344263 -3.953273 0.659321 -5.148242 -25.537474 13.881603 -5.193200 7.125000 0.000000 0.000000 3.923300 -15.791500 2.714000 
16.157616 19.138918 8.826858 -52.736134 -80.335427 43.680140 31.402677 8.563186 7.582117 -57.587694 -24.377568 -3.881224 13.145227 10.433169 59.128061 -3.862695 -23.825879 -53.304009 3.491300 11.450900 33.816000 -28.374657 -13.495930 1.409337 66.918679 2.215916 4.699713 -12.238475 -10.964782 49.359140 0.483380 17.357773 -53.320913 -0.690500 -5.312300 14.801400 -6.553357 -0.840542 -7.885762 32.485940 -12.165645 51.759395 -11.749635 -1.853204 -20.967833 -13.434749 -4.254236 -41.403103 3.622996 -3.295029 54.066329 2.654700 -2.103600 14.610200 3.159054 2.639448 2.525488 -103.706246 6.263156 10.990338 36.242519 -50.345555 -6.657027 3.127721 8.107438 -1.068297 17.341425 23.797514 3.928000 -7.125000 0.000000 0.000000 -12.473800 45.664200 -0.207700 -12.000375 -5.586203 0.829547 99.876750 -0.956405 11.250950 -28.154918 37.890948 -3.296510 -3.926492 0.749581 -4.623661 -25.489833 14.066153 -5.235700 7.125000 0.000000 0.000000 3.944600 -15.658800 2.740100 
16.150432 19.111069 8.839127 -52.790446 -80.403217 43.450458 31.406469 9.093158 7.159196 -57.684933 -22.584829 -3.629159 13.383571 10.312219 58.567434 -3.098173 -22.453499 -54.034560 1.779600 8.391000 23.908000 -28.277691 -13.446694 1.652765 66.743750 2.534853 4.654200 -12.251774 -11.019476 49.879209 0.564032 17.581951 -53.362037 -0.856600 -5.902200 16.501000 -6.472951 -0.827234 -7.688770 32.192408 -12.110244 51.947832 -11.604762 -1.804020 -21.000154 -13.580033 -4.261917 -41.336923 3.588037 -3.304004 54.421486 2.669600 -2.145200 14.727700 3.201194 2.607224 2.520762 -103.714431 6.246277 10.977738 36.175891 -50.280700 -6.646720 3.239996 8.052469 -1.138140 17.815117 23.580120 3.988600 -7.125000 0.000000 0.000000 -12.107500 45.549000 -0.166500 -11.954000 -5.629774 0.805538 99.885718 -0.867468 11.375310 -28.147291 37.883443 -3.270317 -3.870024 0.860402 -4.748608 -25.183798 14.693348 -5.363300 7.125000 0.000000 0.000000 4.130900 -15.146200 2.915800 
16.143005 19.095328 8.849621 -51.348765 -81.044215 41.488729 31.169063 9.374049 6.789145 -58.139212 -20.832866 -2.945793 13.537116 10.257752 57.891459 -2.374818 -21.235373 -54.651115 0.731800 5.465500 15.241200 -28.402303 -13.340661 1.819108 66.213098 2.721021 4.818766 -12.368898 -11.055835 50.456747 0.471322 17.375015 -53.615610 -0.817400 -5.769100 16.115800 -6.593706 -0.672591 -7.521578 30.749860 -11.763827 52.945528 -10.922131 -1.567864 -21.321510 -13.328316 -4.137173 -41.299062 3.332707 -3.212473 54.613308 2.608500 -2.172200 14.754200 3.324748 2.691937 2.449035 -103.665145 6.198513 10.967773 36.188223 -50.269868 -6.654464 3.286557 8.072050 -1.215710 18.028365 23.694361 4.058700 -7.125000 0.000000 0.000000 -11.993100 45.669100 -0.200900 -11.800213 -5.665597 0.726485 99.885508 -0.723155 11.833406 -28.078828 37.902937 -3.263450 -3.870909 0.906048 -5.203833 -25.095557 15.101921 -5.467700 7.125000 0.000000 0.000000 4.198200 -14.800200 2.994700 
16.136144 19.088547 8.859066 -49.399061 -81.576838 39.261045 30.923419 9.404448 6.577875 -58.473325 -19.963001 -2.521013 13.500702 10.255591 57.607207 -2.317486 -21.263888 -54.652218 0.696800 5.335800 14.868800 -28.569086 -13.278676 1.886848 65.918310 2.982608 5.036848 -12.548110 -11.080501 50.689990 0.108790 16.494536 -54.025734 -0.552300 -4.760900 13.227800 -7.072812 -0.610685 -7.304444 29.882903 -11.587763 53.466980 -10.346234 -1.405654 -21.632369 -13.320848 -4.038431 -41.278593 3.424118 -3.197566 54.888983 2.662700 -2.173600 14.797300 3.391305 2.765503 2.410741 -103.704353 6.275791 10.620099 36.300436 -50.342747 -6.676592 3.209550 8.098604 -1.138806 17.713333 23.838959 4.022100 -7.125000 0.000000 0.000000 -12.232900 45.754000 -0.231100 -11.691354 -5.662051 0.690158 99.797131 -0.629838 12.469192 -27.999261 37.881483 -3.282950 -3.951950 0.824390 -5.598393 -25.420215 14.801904 -5.444800 7.125000 0.000000 0.000000 4.019900 -15.029900 2.847000 
16.128314 19.081847 8.868510 -49.643055 -81.428237 39.628715 30.997740 9.440644 6.365359 -58.399208 -19.710322 -2.550307 13.476429 10.222696 57.604646 -2.452159 -21.541285 -54.551600 0.718900 5.418200 15.105300 -28.460614 -13.336052 2.013980 66.026137 3.308526 4.899576 -12.646488 -11.152264 50.837519 -0.167088 15.803514 -54.237548 -0.388000 -4.000200 11.077100 -7.675641 -0.722902 -7.064783 30.843583 -11.897901 52.805475 -10.382743 -1.461538 -21.527324 -13.692912 -3.994927 -41.089540 3.563345 -3.094168 55.061005 2.794800 -2.140300 14.834400 3.288137 2.720236 2.453259 -103.849826 6.424577 10.227860 36.404714 -50.412735 -6.688336 3.064687 8.136688 -1.148205 17.165303 23.943496 3.922000 -7.125000 0.000000 0.000000 -12.621700 45.769100 -0.243500 -11.790014 -5.621819 0.757268 99.520255 -0.693719 13.218119 -28.147763 37.993126 -3.354032 -3.943250 0.637517 -6.116585 -25.290110 14.147562 -5.218400 7.125000 0.000000 0.000000 4.085500 -15.579800 2.845500 
